<svg width="340" height="340" viewBox="0 0 340 340" fill="none" xmlns="http://www.w3.org/2000/svg">
<g clip-path="url(#clip0_309_283)">
<rect width="340" height="340" rx="170" fill="white"/>
<rect width="340" height="340" fill="#0D1A42" fill-opacity="0.95"/>
<circle cx="170" cy="170" r="160" stroke="#0D1A42" stroke-opacity="0.95" stroke-width="20"/>
<path d="M194.868 227.464C187.613 227.244 166.085 220.374 161.805 217.204Z" fill="#8CB2A5"/>
<path d="M197.854 261.324C211.241 280.074 254.525 285.64 261.91 288.32C274.022 292.91 276.083 305.32 276.262 312.08C276.779 331.34 279.039 364.38 272.281 381.84" fill="#8CB2A5"/>
<path d="M197.854 261.324C189.733 246.684 194.868 227.464 194.868 227.464C194.868 227.464 210.604 228.214 216.914 224.984C229.047 219.754 243.458 200.624 243.309 173.234C242.965 148.568 237.78 124.213 228.051 101.564C219.273 78.7543 164.801 57.4343 123.765 97.2743C123.765 97.2743 101.64 117.594 114.489 151.364" fill="#8CB2A5"/>
<path d="M50.7301 381.84C44.8878 363.03 47.1869 313.57 48.0329 306.59C48.8788 299.61 52.1434 285.45 69.4315 281.14C77.0753 279.21 124.939 271.434 134.653 257.944" fill="#8CB2A5"/>
<path d="M137.002 206.944C137.002 206.944 120.928 197.774 114.519 178.654C108.109 159.534 114.489 151.364 114.489 151.364C119.635 143.654 140.108 141.764 140.108 165.024" fill="#8CB2A5"/>
<path d="M137.002 206.944C138.227 231.244 138.535 242.394 134.653 257.944Z" fill="#8CB2A5"/>
<path d="M197.854 261.324C211.241 280.074 254.525 285.64 261.91 288.32C274.022 292.91 276.083 305.32 276.262 312.08C276.779 331.34 279.039 364.38 272.281 381.84H50.7301C44.8878 363.03 47.1869 313.57 48.0329 306.59C48.8788 299.61 52.1434 285.45 69.4315 281.14C77.0753 279.21 124.939 271.434 134.653 257.944C138.535 242.394 138.227 231.244 137.002 206.944C137.002 206.944 120.928 197.774 114.519 178.654C108.109 159.534 114.489 151.364 114.489 151.364C101.64 117.594 123.765 97.2743 123.765 97.2743C164.801 57.4343 219.273 78.7543 228.051 101.564C237.78 124.213 242.965 148.568 243.309 173.234C243.458 200.624 229.047 219.754 216.914 224.984C210.604 228.214 194.868 227.464 194.868 227.464C194.868 227.464 189.733 246.684 197.854 261.324Z" fill="#8CB2A5"/>
<path opacity="0.4" d="M194.639 226.694C193.676 233.5 192.183 243.5 194.639 251.5C185.532 249.33 159.824 231.474 159.824 216.974C171.072 221.388 182.737 224.645 194.639 226.694Z" fill="#050504"/>
<path d="M126.219 157C122.338 158.06 119.69 163.95 122.776 170.3" stroke="#050504" stroke-width="3" stroke-linecap="round"/>
<path d="M47.1673 298.09C46.3173 305.07 44.0073 354.53 49.8773 373.34H272.477C279.267 355.88 276.997 322.84 276.477 303.58C276.297 296.82 274.227 284.41 262.057 279.82C255.263 277.366 220.5 273 202.5 258.5L166 261.5L129.5 254.5C113.324 264.553 75.2886 270.976 68.6673 272.64C51.2973 276.95 48.0173 291.11 47.1673 298.09Z" fill="#050504" stroke="#050504" stroke-width="3" stroke-linecap="round" stroke-linejoin="round"/>
<path d="M156.61 275.03L128.72 257.44C131.878 250.918 134.045 243.961 135.15 236.8L168.66 255.93L195.74 239.73C197.25 247.41 199.52 253.87 202.67 258.92L179.47 272.54L168.66 255.93L156.61 275.03Z" fill="white" stroke="#050504" stroke-width="3" stroke-linecap="round" stroke-linejoin="round"/>
<path d="M168.66 255.93L179.47 272.54C186.69 302.27 196.47 341.77 198.56 375.54L180.56 392.77L163.4 377.93C162.65 346.56 162.68 306.78 156.61 275.06L168.66 255.93Z" fill="white" stroke="#050504" stroke-width="3" stroke-linecap="round" stroke-linejoin="round"/>
<path opacity="0.2" d="M168.66 255.91L178.17 270.51L158.13 279.56L156.61 275.03L168.66 255.91Z" fill="#050504"/>
<path d="M122.798 145.496C132.337 144.371 138.735 148.233 141.304 154.293C143.676 159.943 142.81 170.314 152.073 164.586C160.48 159.396 153.707 142.661 150.311 134.411C169.88 130.618 171.534 118.165 171.534 118.165C180.472 121.156 198.407 115.692 199.362 110.491C208.679 113.962 221.78 113.979 231.109 110.54C234.298 115.086 233 118.165 235.636 122.942C252.193 118.055 261.555 87.8524 235.174 74.9005C238.196 60.7855 216.667 50.6097 206.745 61.02C204.648 44.8229 177.214 44.5981 173.424 56.6506C164.791 47.7163 137.002 50.4728 135.221 66.2985C122.916 60.5606 105.896 76.5525 108.899 90.6285C94.6451 92.8083 92.6961 98.947 96.2496 111.84C83.256 123.991 85.3133 138.135 97.234 146.844C91.9578 157.001 105.256 171.201 113.161 175.238C108.239 155.2 113.87 147.333 122.798 145.496Z" fill="#050504"/>
<path d="M199.737 155.13C199.737 155.958 200.409 156.63 201.237 156.63C202.066 156.63 202.737 155.958 202.737 155.13H199.737ZM215.134 153.48C215.134 154.308 215.806 154.98 216.634 154.98C217.463 154.98 218.134 154.308 218.134 153.48H215.134ZM170.539 155.75C171.329 156 172.172 155.561 172.421 154.771C172.67 153.981 172.232 153.139 171.442 152.889L170.539 155.75ZM117.404 146.49L118.049 147.845C118.065 147.837 118.081 147.829 118.097 147.821L117.404 146.49ZM107.967 162.434C108.119 163.249 108.902 163.786 109.716 163.635C110.531 163.483 111.068 162.7 110.917 161.886L107.967 162.434ZM199.737 154.32C199.737 163.364 193.442 170.31 186.119 170.31V173.31C195.495 173.31 202.737 164.595 202.737 154.32H199.737ZM186.119 170.31C178.795 170.31 172.501 163.364 172.501 154.32H169.501C169.501 164.595 176.743 173.31 186.119 173.31V170.31ZM172.501 154.32C172.501 145.276 178.795 138.33 186.119 138.33V135.33C176.743 135.33 169.501 144.045 169.501 154.32H172.501ZM186.119 138.33C193.442 138.33 199.737 145.276 199.737 154.32H202.737C202.737 144.045 195.495 135.33 186.119 135.33V138.33ZM245.232 150.94C245.232 159.984 238.937 166.93 231.614 166.93V169.93C240.989 169.93 248.232 161.215 248.232 150.94H245.232ZM231.614 166.93C224.29 166.93 217.995 159.984 217.995 150.94H214.995C214.995 161.215 222.238 169.93 231.614 169.93V166.93ZM217.995 150.94C217.995 141.896 224.29 134.95 231.614 134.95V131.95C222.238 131.95 214.995 140.665 214.995 150.94H217.995ZM231.614 134.95C238.937 134.95 245.232 141.896 245.232 150.94H248.232C248.232 140.665 240.989 131.95 231.614 131.95V134.95ZM202.737 155.13C202.737 154.027 203.311 153.125 204.448 152.401C205.618 151.657 207.276 151.195 209.027 151.088C210.779 150.982 212.446 151.243 213.61 151.77C214.785 152.302 215.134 152.923 215.134 153.48H218.134C218.134 151.252 216.559 149.812 214.847 149.037C213.124 148.257 210.942 147.967 208.845 148.094C206.747 148.221 204.555 148.778 202.838 149.87C201.088 150.983 199.737 152.733 199.737 155.13H202.737ZM170.991 154.32C171.442 152.889 171.442 152.889 171.441 152.889C171.441 152.889 171.44 152.889 171.439 152.889C171.438 152.888 171.436 152.888 171.433 152.887C171.427 152.885 171.419 152.882 171.409 152.879C171.387 152.872 171.356 152.862 171.315 152.85C171.232 152.824 171.11 152.786 170.95 152.737C170.631 152.638 170.164 152.495 169.565 152.315C168.368 151.956 166.648 151.449 164.551 150.858C160.359 149.678 154.649 148.162 148.593 146.822C142.545 145.483 136.113 144.312 130.485 143.835C127.671 143.597 125.024 143.528 122.708 143.709C120.414 143.888 118.328 144.319 116.712 145.159L118.097 147.821C119.196 147.249 120.82 146.865 122.941 146.7C125.04 146.536 127.513 146.594 130.231 146.824C135.669 147.286 141.954 148.425 147.945 149.751C153.929 151.075 159.58 152.575 163.738 153.746C165.816 154.331 167.519 154.833 168.702 155.188C169.293 155.366 169.754 155.507 170.066 155.603C170.222 155.651 170.341 155.688 170.421 155.713C170.461 155.726 170.491 155.735 170.51 155.741C170.52 155.745 170.528 155.747 170.533 155.748C170.535 155.749 170.537 155.75 170.538 155.75C170.538 155.75 170.539 155.75 170.539 155.75C170.539 155.75 170.539 155.75 170.991 154.32ZM116.76 145.135C113.597 146.64 111.019 149.154 109.429 152.283L112.104 153.642C113.395 151.102 115.485 149.064 118.049 147.845L116.76 145.135ZM109.429 152.283C107.839 155.412 107.325 158.981 107.967 162.434L110.917 161.886C110.395 159.081 110.813 156.182 112.104 153.642L109.429 152.283Z" fill="#050504"/>
<path d="M210.743 159.458C210.41 158.699 209.526 158.354 208.767 158.686C208.008 159.018 207.662 159.903 207.995 160.662L210.743 159.458ZM211.185 185.261C210.429 185.599 210.09 186.486 210.428 187.242C210.766 187.999 211.653 188.337 212.409 187.999L211.185 185.261ZM164.26 137.444C163.726 138.077 163.807 139.023 164.441 139.557C165.074 140.091 166.021 140.01 166.554 139.376L164.26 137.444ZM187.194 129.01L187.447 127.531L187.437 127.53L187.194 129.01ZM189.946 131.296C190.723 131.584 191.586 131.189 191.875 130.412C192.163 129.635 191.767 128.772 190.991 128.484L189.946 131.296ZM212.795 131.054C212.184 131.613 212.142 132.562 212.702 133.173C213.261 133.784 214.21 133.826 214.821 133.266L212.795 131.054ZM233.953 127.43L234.584 126.069L234.582 126.068L233.953 127.43ZM235.667 130.197C236.328 130.696 237.269 130.565 237.768 129.903C238.267 129.242 238.135 128.301 237.474 127.802L235.667 130.197ZM209.369 160.06C207.995 160.662 207.995 160.662 207.995 160.662C207.995 160.662 207.995 160.662 207.995 160.663C207.995 160.663 207.996 160.664 207.996 160.665C207.997 160.667 207.999 160.671 208.001 160.675C208.005 160.685 208.011 160.698 208.019 160.717C208.035 160.753 208.058 160.807 208.089 160.878C208.151 161.02 208.242 161.228 208.358 161.495C208.589 162.028 208.92 162.792 209.317 163.715C210.111 165.564 211.17 168.05 212.228 170.604C213.287 173.161 214.34 175.774 215.127 177.881C215.521 178.937 215.841 179.848 216.062 180.554C216.172 180.908 216.252 181.194 216.303 181.411C216.36 181.656 216.358 181.722 216.358 181.68H219.358C219.358 181.357 219.29 181.01 219.223 180.725C219.15 180.412 219.047 180.052 218.926 179.661C218.682 178.879 218.339 177.909 217.937 176.832C217.132 174.676 216.063 172.024 214.999 169.456C213.935 166.885 212.871 164.386 212.073 162.531C211.674 161.603 211.342 160.835 211.109 160.299C210.993 160.031 210.901 159.821 210.839 159.678C210.808 159.607 210.784 159.552 210.767 159.515C210.759 159.496 210.753 159.482 210.749 159.473C210.747 159.468 210.745 159.464 210.744 159.462C210.744 159.461 210.743 159.46 210.743 159.459C210.743 159.459 210.743 159.459 210.743 159.458C210.743 159.458 210.743 159.458 209.369 160.06ZM216.358 181.68C216.358 181.607 216.365 181.823 215.85 182.339C215.395 182.794 214.744 183.274 214.027 183.727C213.321 184.173 212.607 184.559 212.064 184.835C211.794 184.972 211.57 185.08 211.416 185.153C211.338 185.19 211.278 185.218 211.239 185.236C211.219 185.245 211.205 185.252 211.195 185.256C211.191 185.258 211.188 185.259 211.186 185.26C211.185 185.261 211.185 185.261 211.184 185.261C211.184 185.261 211.184 185.261 211.184 185.261C211.184 185.261 211.185 185.261 211.185 185.261C211.185 185.261 211.185 185.261 211.797 186.63C212.409 187.999 212.41 187.999 212.41 187.999C212.41 187.999 212.41 187.999 212.41 187.999C212.411 187.999 212.411 187.998 212.412 187.998C212.413 187.998 212.415 187.997 212.417 187.996C212.421 187.994 212.427 187.992 212.434 187.988C212.447 187.982 212.467 187.973 212.491 187.962C212.541 187.939 212.611 187.907 212.699 187.865C212.876 187.781 213.126 187.66 213.424 187.509C214.018 187.206 214.82 186.775 215.629 186.263C216.427 185.759 217.291 185.141 217.973 184.458C218.594 183.836 219.358 182.873 219.358 181.68H216.358ZM166.554 139.376C172.013 132.896 179.852 129.327 186.952 130.49L187.437 127.53C179.03 126.153 170.207 130.384 164.26 137.444L166.554 139.376ZM186.941 130.488C187.965 130.664 188.972 130.934 189.946 131.296L190.991 128.484C189.841 128.057 188.655 127.738 187.447 127.531L186.941 130.488ZM214.821 133.266C220.59 127.985 227.708 126.197 233.323 128.792L234.582 126.068C227.517 122.803 219.129 125.255 212.795 131.054L214.821 133.266ZM233.322 128.791C234.151 129.175 234.937 129.647 235.667 130.197L237.474 127.802C236.574 127.124 235.605 126.543 234.584 126.069L233.322 128.791Z" fill="#050504"/>
<path d="M192.28 198.112C195.248 205.052 205.516 206.72 210.195 205.933" stroke="#050504" stroke-width="3" stroke-miterlimit="10" stroke-linecap="round"/>
<path d="M186.785 164.24C189.885 164.24 192.399 160.793 192.399 156.54C192.399 152.287 189.885 148.84 186.785 148.84C183.685 148.84 181.172 152.287 181.172 156.54C181.172 160.793 183.685 164.24 186.785 164.24Z" fill="#050504"/>
<path d="M190.478 153.76C188.975 148.04 181.461 147.15 176.026 151.91" stroke="#050504" stroke-width="3" stroke-linecap="round"/>
<path d="M230.697 161.46C233.798 161.46 236.311 158.013 236.311 153.76C236.311 149.507 233.798 146.06 230.697 146.06C227.597 146.06 225.084 149.507 225.084 153.76C225.084 158.013 227.597 161.46 230.697 161.46Z" fill="#050504"/>
<path d="M234.39 150.98C232.887 145.26 225.373 144.37 219.938 149.13" stroke="#050504" stroke-width="3" stroke-linecap="round"/>
</g>
<rect x="1.5" y="1.5" width="337" height="337" rx="168.5" stroke="#050504" stroke-width="3"/>
<defs>
<clipPath id="clip0_309_283">
<rect width="340" height="340" rx="170" fill="white"/>
</clipPath>
</defs>
</svg>
